<svg xmlns="http://www.w3.org/2000/svg" width="256" height="256" viewBox="0 0 256 256"><defs><linearGradient id="g" x1="0" y1="0" x2="0" y2="1"><stop offset="0" stop-color="#FFB300"/><stop offset="1" stop-color="#E65100"/></linearGradient></defs><rect width="256" height="256" rx="56" ry="56" fill="url(#g)"/><line x1="40" y1="179.0" x2="216" y2="179.0" stroke="#fff" stroke-opacity=".4" stroke-width="4" stroke-linecap="round"/><line x1="48.0" y1="179.0" x2="48.0" y2="133.6" stroke="#fff" stroke-opacity="0.5" stroke-width="8" stroke-linecap="round"/><line x1="62.5" y1="179.0" x2="62.5" y2="108.3" stroke="#fff" stroke-opacity="0.95" stroke-width="11" stroke-linecap="round"/><circle cx="62.5" cy="108.3" r="7.0" fill="#fff"/><line x1="77.1" y1="179.0" x2="77.1" y2="123.4" stroke="#fff" stroke-opacity="0.5" stroke-width="8" stroke-linecap="round"/><line x1="91.6" y1="179.0" x2="91.6" y2="86.1" stroke="#fff" stroke-opacity="0.5" stroke-width="8" stroke-linecap="round"/><line x1="106.2" y1="179.0" x2="106.2" y2="116.4" stroke="#fff" stroke-opacity="0.95" stroke-width="11" stroke-linecap="round"/><circle cx="106.2" cy="116.4" r="7.0" fill="#fff"/><line x1="120.7" y1="179.0" x2="120.7" y2="78.0" stroke="#fff" stroke-opacity="0.5" stroke-width="8" stroke-linecap="round"/><line x1="135.3" y1="179.0" x2="135.3" y2="98.2" stroke="#fff" stroke-opacity="0.5" stroke-width="8" stroke-linecap="round"/><line x1="149.8" y1="179.0" x2="149.8" y2="88.1" stroke="#fff" stroke-opacity="0.95" stroke-width="11" stroke-linecap="round"/><circle cx="149.8" cy="88.1" r="7.0" fill="#fff"/><line x1="164.4" y1="179.0" x2="164.4" y2="118.4" stroke="#fff" stroke-opacity="0.5" stroke-width="8" stroke-linecap="round"/><line x1="178.9" y1="179.0" x2="178.9" y2="100.2" stroke="#fff" stroke-opacity="0.5" stroke-width="8" stroke-linecap="round"/><line x1="193.5" y1="179.0" x2="193.5" y2="128.5" stroke="#fff" stroke-opacity="0.95" stroke-width="11" stroke-linecap="round"/><circle cx="193.5" cy="128.5" r="7.0" fill="#fff"/><line x1="208.0" y1="179.0" x2="208.0" y2="138.6" stroke="#fff" stroke-opacity="0.5" stroke-width="8" stroke-linecap="round"/></svg>
